<svg width="68" height="32" viewBox="0 0 68 32" fill="none" xmlns="http://www.w3.org/2000/svg">
<rect width="68" height="32" fill="#C5C5C5"/>
<path d="M48.4238 12.3911H45.6714C45.5095 12.3911 45.3476 12.5526 45.2666 12.7141L44.1333 19.8196C44.1333 19.9811 44.2143 20.0618 44.3762 20.0618H45.8333C45.9952 20.0618 46.0762 19.9811 46.0762 19.8196L46.4 17.801C46.4 17.6395 46.5619 17.478 46.8047 17.478H47.6952C49.5571 17.478 50.6095 16.5898 50.8524 14.8134C51.0143 14.0867 50.8524 13.4408 50.5285 13.0371C50.0428 12.6333 49.3143 12.3911 48.4238 12.3911ZM48.7476 15.0557C48.5857 16.0246 47.8571 16.0246 47.1285 16.0246H46.6428L46.9666 14.1675C46.9666 14.0867 47.0476 14.006 47.2095 14.006H47.3714C47.8571 14.006 48.3428 14.006 48.5857 14.329C48.7476 14.4097 48.7476 14.652 48.7476 15.0557Z" fill="#139AD6"/>
<path d="M28.5902 12.3911H25.8378C25.6759 12.3911 25.514 12.5526 25.433 12.7141L24.2997 19.8196C24.2997 19.9811 24.3806 20.0618 24.5425 20.0618H25.8378C25.9997 20.0618 26.1616 19.9003 26.2425 19.7389L26.5664 17.801C26.5664 17.6395 26.7283 17.478 26.9711 17.478H27.8616C29.7235 17.478 30.7759 16.5898 31.0187 14.8134C31.1806 14.0867 31.0187 13.4408 30.6949 13.0371C30.2092 12.6333 29.5616 12.3911 28.5902 12.3911ZM28.914 15.0557C28.7521 16.0246 28.0235 16.0246 27.2949 16.0246H26.8902L27.214 14.1675C27.214 14.0867 27.2949 14.006 27.4568 14.006H27.6187C28.1045 14.006 28.5902 14.006 28.833 14.329C28.914 14.4097 28.9949 14.652 28.914 15.0557Z" fill="#263B80"/>
<path d="M36.9282 14.975H35.633C35.552 14.975 35.3901 15.0557 35.3901 15.1365L35.3092 15.5402L35.2282 15.3787C34.9044 14.975 34.3377 14.8135 33.6901 14.8135C32.233 14.8135 30.9377 15.9439 30.6949 17.478C30.533 18.2855 30.7758 19.0122 31.1806 19.4967C31.5854 19.9811 32.152 20.1426 32.8806 20.1426C34.0949 20.1426 34.7425 19.4159 34.7425 19.4159L34.6616 19.8196C34.6616 19.9811 34.7425 20.0619 34.9044 20.0619H36.1187C36.2806 20.0619 36.4425 19.9004 36.5235 19.7389L37.252 15.2172C37.1711 15.1365 37.0092 14.975 36.9282 14.975ZM35.0663 17.5588C34.9044 18.2855 34.3377 18.8507 33.5282 18.8507C33.1235 18.8507 32.7996 18.6892 32.6377 18.5277C32.4758 18.2855 32.3949 17.9625 32.3949 17.5588C32.4758 16.8321 33.1235 16.2669 33.852 16.2669C34.2568 16.2669 34.4996 16.4284 34.7425 16.5899C34.9854 16.8321 35.0663 17.2358 35.0663 17.5588Z" fill="#263B80"/>
<path d="M56.6815 14.9755H55.3863C55.3053 14.9755 55.1434 15.0562 55.1434 15.1369L55.0625 15.5407L54.9815 15.3792C54.6577 14.9755 54.091 14.814 53.4434 14.814C51.9863 14.814 50.691 15.9444 50.4482 17.4785C50.2863 18.286 50.5291 19.0127 50.9339 19.4971C51.3387 19.9816 51.9053 20.1431 52.6339 20.1431C53.8482 20.1431 54.4958 19.4164 54.4958 19.4164L54.4148 19.8201C54.4148 19.9816 54.4958 20.0624 54.6577 20.0624H55.872C56.0339 20.0624 56.1958 19.9009 56.2768 19.7394L57.0053 15.2177C56.9244 15.1369 56.8434 14.9755 56.6815 14.9755ZM54.8196 17.5593C54.6577 18.286 54.091 18.8512 53.2815 18.8512C52.8768 18.8512 52.5529 18.6897 52.391 18.5282C52.2291 18.286 52.1482 17.963 52.1482 17.5593C52.2291 16.8326 52.8767 16.2674 53.6053 16.2674C54.0101 16.2674 54.2529 16.4289 54.4958 16.5903C54.8196 16.8326 54.9006 17.2363 54.8196 17.5593Z" fill="#139AD6"/>
<path d="M43.9724 14.9751H42.5962C42.4343 14.9751 42.3533 15.0558 42.2724 15.1366L40.4914 17.8819L39.6819 15.2981C39.6009 15.1366 39.52 15.0558 39.2771 15.0558H37.9819C37.82 15.0558 37.739 15.2173 37.739 15.3788L39.1962 19.6583L37.82 21.5961C37.739 21.7576 37.82 21.9999 37.9819 21.9999H39.2771C39.439 21.9999 39.52 21.9191 39.6009 21.8384L44.0533 15.4596C44.2962 15.2173 44.1343 14.9751 43.9724 14.9751Z" fill="#263B80"/>
<path d="M58.219 12.6336L57.0857 19.9006C57.0857 20.0621 57.1666 20.1428 57.3286 20.1428H58.4619C58.6238 20.1428 58.7857 19.9813 58.8666 19.8198L60 12.7143C60 12.5528 59.919 12.4721 59.7571 12.4721H58.4619C58.3809 12.3914 58.3 12.4721 58.219 12.6336Z" fill="#139AD6"/>
<path d="M18.3095 9.96893C17.7429 9.32298 16.6905 9 15.2333 9H11.1857C10.9429 9 10.7 9.24223 10.6191 9.48447L9 20.062C9 20.3042 9.16191 20.4657 9.32381 20.4657H11.8333L12.481 16.5092V16.6707C12.5619 16.4285 12.8048 16.1863 13.0476 16.1863H14.2619C16.6095 16.1863 18.3905 15.2173 18.9572 12.5528C18.9572 12.472 18.9572 12.3913 18.9572 12.3105C18.8762 12.3105 18.8762 12.3105 18.9572 12.3105C19.0381 11.2608 18.8762 10.6149 18.3095 9.96893Z" fill="#263B80"/>
<path d="M18.8756 12.3105C18.8756 12.3913 18.8756 12.472 18.8756 12.5528C18.3089 15.2981 16.5279 16.1863 14.1803 16.1863H12.966C12.7232 16.1863 12.4803 16.4285 12.3994 16.6707L11.5898 21.5962C11.5898 21.7576 11.6708 21.9191 11.9137 21.9191H14.0184C14.2613 21.9191 14.5041 21.7576 14.5041 21.5154V21.4347L14.9089 18.9316V18.7701C14.9089 18.5279 15.1518 18.3664 15.3946 18.3664H15.7184C17.7422 18.3664 19.3613 17.5589 19.766 15.1366C19.928 14.1677 19.847 13.2795 19.3613 12.7143C19.2803 12.5528 19.1184 12.3913 18.8756 12.3105Z" fill="#139AD6"/>
<path d="M18.3101 12.0684C18.2292 12.0684 18.1482 11.9877 18.0673 11.9877C17.9863 11.9877 17.9054 11.9877 17.8244 11.9069C17.5006 11.8262 17.1768 11.8262 16.7721 11.8262H13.6149C13.5339 11.8262 13.453 11.8262 13.372 11.9069C13.2101 11.9877 13.1292 12.1491 13.1292 12.3106L12.4816 16.5093V16.6708C12.5625 16.4286 12.8054 16.1864 13.0482 16.1864H14.2625C16.6101 16.1864 18.3911 15.2174 18.9578 12.5529C18.9578 12.4721 18.9578 12.3914 19.0387 12.3106C18.8768 12.2299 18.7959 12.1491 18.634 12.1491C18.3911 12.0684 18.3911 12.0684 18.3101 12.0684Z" fill="#232C65"/>
</svg>
